<svg xmlns="http://www.w3.org/2000/svg" viewBox="0 0 48 48">
  <circle cx="24" cy="24" r="22" fill="#ab3600" stroke="#561700" stroke-width="2"/>
  <path d="M24 2c-1.5 0-3 1.5-3 3v1.5c-4.8 1.2-8.8 4-11.3 8L8 13.5c-.5.8-.2 1.8.6 2.3l1.3.8c-1.2 2.3-1.8 4.8-1.9 7.4H3c-1 0-1.8.8-1.8 1.8V27c0 1 .8 1.8 1.8 1.8h5c.1 2.6.7 5.1 1.9 7.4l-1.3.8c-.8.5-1.1 1.5-.6 2.3l1 2c.4.8 1.4 1.2 2.3.8l1.3-.8c2.5 2.3 5.5 3.9 8.8 4.6V48c0 1.7 1.3 3 3 3h2c1.7 0 3-1.3 3-3v-1.7c3.3-.7 6.3-2.3 8.8-4.6l1.3.8c.8.4 1.8.1 2.3-.8l1-2c.5-.8.2-1.8-.6-2.3l-1.3-.8c1.2-2.3 1.8-4.8 1.9-7.4h5c1 0 1.8-.8 1.8-1.8V25.8c0-1-.8-1.8-1.8-1.8h-5c-.1-2.6-.7-5.1-1.9-7.4l1.3-.8c.8-.5 1.1-1.5.6-2.3l-1-2c-.4-.8-1.4-1.2-2.3-.8l-1.3.8c-2.5-4-6.5-6.8-11.3-8V5c0-1.5-1.3-3-3-3h-2z" fill="#ff5f1f" opacity="0.3"/>
  <circle cx="24" cy="24" r="12" fill="none" stroke="#561700" stroke-width="1.2" opacity="0.5"/>
  <path d="M24 8v32M8 24h32" stroke="#561700" stroke-width="1.2" opacity="0.5"/>
  <path d="M24 12c6.6 0 12 5.4 12 12s-5.4 12-12 12" fill="none" stroke="#561700" stroke-width="0.8" opacity="0.5"/>
</svg>
